# xmcd CD database file
#
# Track frame offsets:
#	150
#	29335
#	51434
#	69833
#	92443
#	125752
#	145385
#	175127
#	188191
#	207383
#	228449
#	244214
#	257563
#
# Disc length: 3637 seconds
#
# Revision: 0
# Processed by: cddbd v1.5.2PL0 Copyright (c) Steve Scherf et al.
# Submitted via: CDex 1.70beta2
#
DISCID=bb0e330d
DTITLE=Sergio Poli - Señales de humo
DYEAR=2007
DGENRE=Jazz
TTITLE0=Don't get around much anymore
TTITLE1=Tiempo loco
TTITLE2=Inspiración
TTITLE3=I'll remember april
TTITLE4=I want to talk about you
TTITLE5=Paula vals
TTITLE6=Maga
TTITLE7=Nada
TTITLE8=Me voy quedando
TTITLE9=Chuva
TTITLE10=Doble Concierto en re menor, 1er mov.
TTITLE11=Mátrics
TTITLE12=Señales de humo
EXTD=YEAR: 2007
EXTT0=
EXTT1=
EXTT2=
EXTT3=
EXTT4=
EXTT5=
EXTT6=
EXTT7=
EXTT8=
EXTT9=
EXTT10=
EXTT11=
EXTT12=
PLAYORDER=
